<svg width="120" height="120" viewBox="0 0 120 120" fill="none" xmlns="http://www.w3.org/2000/svg">
  <defs>
    <linearGradient id="grad1" x1="0%" y1="0%" x2="100%" y2="100%">
      <stop offset="0%" style="stop-color:#3b82f6;stop-opacity:1" />
      <stop offset="50%" style="stop-color:#06b6d4;stop-opacity:1" />
      <stop offset="100%" style="stop-color:#8b5cf6;stop-opacity:1" />
    </linearGradient>
    <linearGradient id="grad2" x1="0%" y1="0%" x2="100%" y2="100%">
      <stop offset="0%" style="stop-color:#ffffff;stop-opacity:0.9" />
      <stop offset="100%" style="stop-color:#e0f2fe;stop-opacity:0.9" />
    </linearGradient>
    <filter id="glow">
      <feGaussianBlur stdDeviation="3" result="coloredBlur"/>
      <feMerge>
        <feMergeNode in="coloredBlur"/>
        <feMergeNode in="SourceGraphic"/>
      </feMerge>
    </filter>
  </defs>

  <rect width="120" height="120" rx="24" fill="url(#grad1)" filter="url(#glow)"/>

  <path d="M30 35 L90 35 L90 45 L30 45 Z" fill="url(#grad2)" opacity="0.9"/>
  <path d="M30 52 L75 52 L75 62 L30 62 Z" fill="url(#grad2)" opacity="0.8"/>
  <path d="M30 69 L85 69 L85 79 L30 79 Z" fill="url(#grad2)" opacity="0.7"/>

  <circle cx="95" cy="40" r="4" fill="#10b981"/>
  <circle cx="95" cy="57" r="4" fill="#f59e0b"/>
  <circle cx="95" cy="74" r="4" fill="#ef4444"/>

  <path d="M35 90 Q60 85 85 90" stroke="url(#grad2)" stroke-width="3" fill="none" stroke-linecap="round"/>
  <circle cx="35" cy="90" r="3" fill="url(#grad2)"/>
  <circle cx="60" cy="85" r="3" fill="url(#grad2)"/>
  <circle cx="85" cy="90" r="3" fill="url(#grad2)"/>
</svg>